<?xml version="1.0" encoding="UTF-8" standalone="no"?>
<svg
   viewBox="0 0 512 512"
   version="1.1"
   id="svg4"
   sodipodi:docname="person-running-solid.svg"
   width="512"
   height="512"
   inkscape:export-filename="freiburg-run.png"
   inkscape:export-xdpi="96"
   inkscape:export-ydpi="96"
   inkscape:version="1.2.2 (b0a8486, 2022-12-01)"
   xmlns:inkscape="http://www.inkscape.org/namespaces/inkscape"
   xmlns:sodipodi="http://sodipodi.sourceforge.net/DTD/sodipodi-0.dtd"
   xmlns="http://www.w3.org/2000/svg"
   xmlns:svg="http://www.w3.org/2000/svg">
  <defs
     id="defs8">
    <linearGradient
       id="linearGradient851"
       inkscape:swatch="solid">
      <stop
         style="stop-color:#000000;stop-opacity:1;"
         offset="0"
         id="stop849" />
    </linearGradient>
  </defs>
  <sodipodi:namedview
     id="namedview6"
     pagecolor="#ffffff"
     bordercolor="#000000"
     borderopacity="0.25"
     inkscape:showpageshadow="2"
     inkscape:pageopacity="0.0"
     inkscape:pagecheckerboard="true"
     inkscape:deskcolor="#d1d1d1"
     showgrid="false"
     inkscape:zoom="0.4609375"
     inkscape:cx="190.91525"
     inkscape:cy="256"
     inkscape:window-width="1344"
     inkscape:window-height="456"
     inkscape:window-x="0"
     inkscape:window-y="25"
     inkscape:window-maximized="0"
     inkscape:current-layer="svg4" />
  <!--! Font Awesome Pro 6.2.1 by @fontawesome - https://fontawesome.com License - https://fontawesome.com/license (Commercial License) Copyright 2022 Fonticons, Inc. -->
  <path
     d="M 360.98891,60.995244 C 360.98891,36.154119 340.83478,16 315.99366,16 c -24.84113,0 -44.99524,20.154119 -44.99524,44.995244 0,24.841124 20.15411,44.995246 44.99524,44.995246 24.84112,0 44.99525,-20.154122 44.99525,-44.995246 z M 178.8519,180.51386 c 9.28028,-9.28027 21.93519,-14.52972 35.15254,-14.52972 1.78107,0 3.56212,0.0938 5.24944,0.28123 l -29.2469,87.83446 c -8.71784,26.24722 1.59358,55.11918 25.12234,69.83637 l 80.80396,50.52591 -23.80998,83.2412 c -4.59327,15.93581 4.687,32.52781 20.62281,37.12107 15.93582,4.59327 32.52782,-4.687 37.12108,-20.62281 l 26.90341,-94.11505 c 5.53066,-19.31046 -2.43725,-39.93329 -19.4042,-50.52591 l -53.24437,-33.27774 28.96569,-77.24183 4.78074,11.53003 c 14.06102,33.55895 46.77631,55.40039 83.14746,55.40039 h 19.96664 c 16.592,0 29.99683,-13.40483 29.99683,-29.99683 0,-16.592 -13.40483,-29.99682 -29.99683,-29.99682 h -19.96664 c -12.09247,0 -23.06006,-7.31174 -27.65332,-18.4668 l -5.90564,-14.06102 c -13.68604,-32.90277 -41.33937,-58.02511 -75.46077,-68.524 l -45.65142,-14.06102 c -10.40515,-3.18716 -21.279,-4.87448 -32.24659,-4.87448 -29.05943,0 -56.99398,11.53003 -77.52305,32.15285 l -21.74771,21.65396 c -11.71751,11.71751 -11.71751,30.74675 0,42.46426 11.71751,11.71752 30.74676,11.71752 42.46427,0 L 178.94565,180.6076 Z M 146.51158,345.96512 H 91.017439 c -16.591996,0 -29.99683,13.40483 -29.99683,29.99683 0,16.592 13.404834,29.99683 29.99683,29.99683 h 65.243101 c 17.81062,0 33.93392,-10.49889 41.1519,-26.71592 l 10.78012,-24.27869 -8.90532,-5.6244 C 182.88272,339.1221 170.69651,324.21742 163.75975,307.25046 Z"
     id="path2"
     style="fill:#ffffff;fill-opacity:1;stroke:none;stroke-width:0.937401;stroke-opacity:1" />
</svg>
