<?xml version="1.0" encoding="UTF-8" standalone="no"?>
<!-- Created with Inkscape (http://www.inkscape.org/) -->

<svg
   width="109mm"
   height="152mm"
   viewBox="0 0 109 152"
   version="1.1"
   id="svg1"
   inkscape:version="1.3 (0e150ed, 2023-07-21)"
   sodipodi:docname="freiburg-run-flyer.svg"
   xml:space="preserve"
   inkscape:export-filename="freiburg-run-flyer.pdf"
   inkscape:export-xdpi="247.71046"
   inkscape:export-ydpi="247.71046"
   xmlns:inkscape="http://www.inkscape.org/namespaces/inkscape"
   xmlns:sodipodi="http://sodipodi.sourceforge.net/DTD/sodipodi-0.dtd"
   xmlns="http://www.w3.org/2000/svg"
   xmlns:svg="http://www.w3.org/2000/svg"><sodipodi:namedview
     id="namedview1"
     pagecolor="#ffffff"
     bordercolor="#000000"
     borderopacity="0.25"
     inkscape:showpageshadow="2"
     inkscape:pageopacity="0.0"
     inkscape:pagecheckerboard="0"
     inkscape:deskcolor="#d1d1d1"
     inkscape:document-units="mm"
     inkscape:zoom="0.87419764"
     inkscape:cx="104.09545"
     inkscape:cy="151.56756"
     inkscape:window-width="1344"
     inkscape:window-height="702"
     inkscape:window-x="28"
     inkscape:window-y="84"
     inkscape:window-maximized="0"
     inkscape:current-layer="layer1"
     showguides="true"><sodipodi:guide
       position="2,0"
       orientation="1,0"
       id="guideleft"
       inkscape:locked="false" /><sodipodi:guide
       position="0,150"
       orientation="0,-1"
       id="guidetop"
       inkscape:locked="false" /><sodipodi:guide
       position="107,0"
       orientation="1,0"
       id="guideright"
       inkscape:locked="false" /><sodipodi:guide
       position="0,2"
       orientation="0,-1"
       id="guidebottom"
       inkscape:locked="false" /></sodipodi:namedview><defs
     id="defs1"><rect
       x="329.44495"
       y="209.33481"
       width="2.2878122"
       height="21.734217"
       id="rect6" /><linearGradient
       id="linearGradient851"
       inkscape:swatch="solid"><stop
         style="stop-color:#000000;stop-opacity:1;"
         offset="0"
         id="stop849" /></linearGradient></defs><g
     inkscape:label="Ebene 1"
     inkscape:groupmode="layer"
     id="layer1"><rect
       style="font-variation-settings:'wght' 700;fill:#3e8ed0;fill-opacity:1;stroke-width:0"
       id="rect2"
       width="109"
       height="152"
       x="0"
       y="0" /><rect
       style="fill:#ffffff;fill-opacity:1;stroke-width:0"
       id="rect3"
       width="191.88548"
       height="127.15303"
       x="-65.172073"
       y="61.76965"
       transform="rotate(-16.112089)" /><g
       id="g329"
       transform="matrix(0.1614043,0,0,0.1614043,33.194736,94.109972)"><rect
         x="0"
         y="0"
         width="264"
         height="264"
         fill="#ffffff"
         id="rect1" /><g
         fill="#000000"
         id="g327"><rect
           id="use1"
           width="8"
           height="8"
           x="32"
           y="32" /><rect
           id="use2-2"
           width="8"
           height="8"
           x="32"
           y="40" /><rect
           id="use3"
           width="8"
           height="8"
           x="32"
           y="48" /><rect
           id="use4"
           width="8"
           height="8"
           x="32"
           y="56" /><rect
           id="use5"
           width="8"
           height="8"
           x="32"
           y="64" /><rect
           id="use6"
           width="8"
           height="8"
           x="32"
           y="72" /><rect
           id="use7"
           width="8"
           height="8"
           x="32"
           y="80" /><rect
           id="use8"
           width="8"
           height="8"
           x="32"
           y="96" /><rect
           id="use9"
           width="8"
           height="8"
           x="32"
           y="112" /><rect
           id="use10"
           width="8"
           height="8"
           x="32"
           y="120" /><rect
           id="use11"
           width="8"
           height="8"
           x="32"
           y="176" /><rect
           id="use12"
           width="8"
           height="8"
           x="32"
           y="184" /><rect
           id="use13"
           width="8"
           height="8"
           x="32"
           y="192" /><rect
           id="use14"
           width="8"
           height="8"
           x="32"
           y="200" /><rect
           id="use15"
           width="8"
           height="8"
           x="32"
           y="208" /><rect
           id="use16"
           width="8"
           height="8"
           x="32"
           y="216" /><rect
           id="use17"
           width="8"
           height="8"
           x="32"
           y="224" /><rect
           id="use18"
           width="8"
           height="8"
           x="40"
           y="32" /><rect
           id="use19"
           width="8"
           height="8"
           x="40"
           y="80" /><rect
           id="use20"
           width="8"
           height="8"
           x="40"
           y="96" /><rect
           id="use21"
           width="8"
           height="8"
           x="40"
           y="120" /><rect
           id="use22"
           width="8"
           height="8"
           x="40"
           y="128" /><rect
           id="use23"
           width="8"
           height="8"
           x="40"
           y="152" /><rect
           id="use24"
           width="8"
           height="8"
           x="40"
           y="160" /><rect
           id="use25"
           width="8"
           height="8"
           x="40"
           y="176" /><rect
           id="use26"
           width="8"
           height="8"
           x="40"
           y="224" /><rect
           id="use27"
           width="8"
           height="8"
           x="48"
           y="32" /><rect
           id="use28"
           width="8"
           height="8"
           x="48"
           y="48" /><rect
           id="use29"
           width="8"
           height="8"
           x="48"
           y="56" /><rect
           id="use30"
           width="8"
           height="8"
           x="48"
           y="64" /><rect
           id="use31"
           width="8"
           height="8"
           x="48"
           y="80" /><rect
           id="use32"
           width="8"
           height="8"
           x="48"
           y="104" /><rect
           id="use33"
           width="8"
           height="8"
           x="48"
           y="120" /><rect
           id="use34"
           width="8"
           height="8"
           x="48"
           y="128" /><rect
           id="use35"
           width="8"
           height="8"
           x="48"
           y="144" /><rect
           id="use36"
           width="8"
           height="8"
           x="48"
           y="160" /><rect
           id="use37"
           width="8"
           height="8"
           x="48"
           y="176" /><rect
           id="use38"
           width="8"
           height="8"
           x="48"
           y="192" /><rect
           id="use39"
           width="8"
           height="8"
           x="48"
           y="200" /><rect
           id="use40"
           width="8"
           height="8"
           x="48"
           y="208" /><rect
           id="use41"
           width="8"
           height="8"
           x="48"
           y="224" /><rect
           id="use42"
           width="8"
           height="8"
           x="56"
           y="32" /><rect
           id="use43"
           width="8"
           height="8"
           x="56"
           y="48" /><rect
           id="use44"
           width="8"
           height="8"
           x="56"
           y="56" /><rect
           id="use45"
           width="8"
           height="8"
           x="56"
           y="64" /><rect
           id="use46"
           width="8"
           height="8"
           x="56"
           y="80" /><rect
           id="use47"
           width="8"
           height="8"
           x="56"
           y="96" /><rect
           id="use48"
           width="8"
           height="8"
           x="56"
           y="128" /><rect
           id="use49"
           width="8"
           height="8"
           x="56"
           y="152" /><rect
           id="use50"
           width="8"
           height="8"
           x="56"
           y="160" /><rect
           id="use51"
           width="8"
           height="8"
           x="56"
           y="176" /><rect
           id="use52"
           width="8"
           height="8"
           x="56"
           y="192" /><rect
           id="use53"
           width="8"
           height="8"
           x="56"
           y="200" /><rect
           id="use54"
           width="8"
           height="8"
           x="56"
           y="208" /><rect
           id="use55"
           width="8"
           height="8"
           x="56"
           y="224" /><rect
           id="use56"
           width="8"
           height="8"
           x="64"
           y="32" /><rect
           id="use57"
           width="8"
           height="8"
           x="64"
           y="48" /><rect
           id="use58"
           width="8"
           height="8"
           x="64"
           y="56" /><rect
           id="use59"
           width="8"
           height="8"
           x="64"
           y="64" /><rect
           id="use60"
           width="8"
           height="8"
           x="64"
           y="80" /><rect
           id="use61"
           width="8"
           height="8"
           x="64"
           y="96" /><rect
           id="use62"
           width="8"
           height="8"
           x="64"
           y="104" /><rect
           id="use63"
           width="8"
           height="8"
           x="64"
           y="128" /><rect
           id="use64"
           width="8"
           height="8"
           x="64"
           y="176" /><rect
           id="use65"
           width="8"
           height="8"
           x="64"
           y="192" /><rect
           id="use66"
           width="8"
           height="8"
           x="64"
           y="200" /><rect
           id="use67"
           width="8"
           height="8"
           x="64"
           y="208" /><rect
           id="use68"
           width="8"
           height="8"
           x="64"
           y="224" /><rect
           id="use69"
           width="8"
           height="8"
           x="72"
           y="32" /><rect
           id="use70"
           width="8"
           height="8"
           x="72"
           y="80" /><rect
           id="use71"
           width="8"
           height="8"
           x="72"
           y="104" /><rect
           id="use72"
           width="8"
           height="8"
           x="72"
           y="112" /><rect
           id="use73"
           width="8"
           height="8"
           x="72"
           y="120" /><rect
           id="use74"
           width="8"
           height="8"
           x="72"
           y="128" /><rect
           id="use75"
           width="8"
           height="8"
           x="72"
           y="136" /><rect
           id="use76"
           width="8"
           height="8"
           x="72"
           y="160" /><rect
           id="use77"
           width="8"
           height="8"
           x="72"
           y="176" /><rect
           id="use78"
           width="8"
           height="8"
           x="72"
           y="224" /><rect
           id="use79"
           width="8"
           height="8"
           x="80"
           y="32" /><rect
           id="use80"
           width="8"
           height="8"
           x="80"
           y="40" /><rect
           id="use81"
           width="8"
           height="8"
           x="80"
           y="48" /><rect
           id="use82"
           width="8"
           height="8"
           x="80"
           y="56" /><rect
           id="use83"
           width="8"
           height="8"
           x="80"
           y="64" /><rect
           id="use84"
           width="8"
           height="8"
           x="80"
           y="72" /><rect
           id="use85"
           width="8"
           height="8"
           x="80"
           y="80" /><rect
           id="use86"
           width="8"
           height="8"
           x="80"
           y="96" /><rect
           id="use87"
           width="8"
           height="8"
           x="80"
           y="112" /><rect
           id="use88"
           width="8"
           height="8"
           x="80"
           y="128" /><rect
           id="use89"
           width="8"
           height="8"
           x="80"
           y="144" /><rect
           id="use90"
           width="8"
           height="8"
           x="80"
           y="160" /><rect
           id="use91"
           width="8"
           height="8"
           x="80"
           y="176" /><rect
           id="use92"
           width="8"
           height="8"
           x="80"
           y="184" /><rect
           id="use93"
           width="8"
           height="8"
           x="80"
           y="192" /><rect
           id="use94"
           width="8"
           height="8"
           x="80"
           y="200" /><rect
           id="use95"
           width="8"
           height="8"
           x="80"
           y="208" /><rect
           id="use96"
           width="8"
           height="8"
           x="80"
           y="216" /><rect
           id="use97"
           width="8"
           height="8"
           x="80"
           y="224" /><rect
           id="use98"
           width="8"
           height="8"
           x="88"
           y="104" /><rect
           id="use99"
           width="8"
           height="8"
           x="88"
           y="120" /><rect
           id="use100"
           width="8"
           height="8"
           x="88"
           y="136" /><rect
           id="use101"
           width="8"
           height="8"
           x="96"
           y="32" /><rect
           id="use102"
           width="8"
           height="8"
           x="96"
           y="80" /><rect
           id="use103"
           width="8"
           height="8"
           x="96"
           y="88" /><rect
           id="use104"
           width="8"
           height="8"
           x="96"
           y="120" /><rect
           id="use105"
           width="8"
           height="8"
           x="96"
           y="144" /><rect
           id="use106"
           width="8"
           height="8"
           x="96"
           y="152" /><rect
           id="use107"
           width="8"
           height="8"
           x="96"
           y="160" /><rect
           id="use108"
           width="8"
           height="8"
           x="96"
           y="168" /><rect
           id="use109"
           width="8"
           height="8"
           x="96"
           y="192" /><rect
           id="use110"
           width="8"
           height="8"
           x="96"
           y="200" /><rect
           id="use111"
           width="8"
           height="8"
           x="96"
           y="216" /><rect
           id="use112"
           width="8"
           height="8"
           x="96"
           y="224" /><rect
           id="use113"
           width="8"
           height="8"
           x="104"
           y="32" /><rect
           id="use114"
           width="8"
           height="8"
           x="104"
           y="48" /><rect
           id="use115"
           width="8"
           height="8"
           x="104"
           y="72" /><rect
           id="use116"
           width="8"
           height="8"
           x="104"
           y="88" /><rect
           id="use117"
           width="8"
           height="8"
           x="104"
           y="96" /><rect
           id="use118"
           width="8"
           height="8"
           x="104"
           y="112" /><rect
           id="use119"
           width="8"
           height="8"
           x="104"
           y="128" /><rect
           id="use120"
           width="8"
           height="8"
           x="104"
           y="136" /><rect
           id="use121"
           width="8"
           height="8"
           x="104"
           y="152" /><rect
           id="use122"
           width="8"
           height="8"
           x="104"
           y="168" /><rect
           id="use123"
           width="8"
           height="8"
           x="104"
           y="184" /><rect
           id="use124"
           width="8"
           height="8"
           x="104"
           y="192" /><rect
           id="use125"
           width="8"
           height="8"
           x="104"
           y="200" /><rect
           id="use126"
           width="8"
           height="8"
           x="104"
           y="208" /><rect
           id="use127"
           width="8"
           height="8"
           x="104"
           y="216" /><rect
           id="use128"
           width="8"
           height="8"
           x="104"
           y="224" /><rect
           id="use129"
           width="8"
           height="8"
           x="112"
           y="32" /><rect
           id="use130"
           width="8"
           height="8"
           x="112"
           y="56" /><rect
           id="use131"
           width="8"
           height="8"
           x="112"
           y="64" /><rect
           id="use132"
           width="8"
           height="8"
           x="112"
           y="80" /><rect
           id="use133"
           width="8"
           height="8"
           x="112"
           y="104" /><rect
           id="use134"
           width="8"
           height="8"
           x="112"
           y="128" /><rect
           id="use135"
           width="8"
           height="8"
           x="112"
           y="136" /><rect
           id="use136"
           width="8"
           height="8"
           x="112"
           y="144" /><rect
           id="use137"
           width="8"
           height="8"
           x="112"
           y="168" /><rect
           id="use138"
           width="8"
           height="8"
           x="112"
           y="176" /><rect
           id="use139"
           width="8"
           height="8"
           x="112"
           y="192" /><rect
           id="use140"
           width="8"
           height="8"
           x="112"
           y="208" /><rect
           id="use141"
           width="8"
           height="8"
           x="112"
           y="216" /><rect
           id="use142"
           width="8"
           height="8"
           x="112"
           y="224" /><rect
           id="use143"
           width="8"
           height="8"
           x="120"
           y="32" /><rect
           id="use144"
           width="8"
           height="8"
           x="120"
           y="40" /><rect
           id="use145"
           width="8"
           height="8"
           x="120"
           y="48" /><rect
           id="use146"
           width="8"
           height="8"
           x="120"
           y="56" /><rect
           id="use147"
           width="8"
           height="8"
           x="120"
           y="64" /><rect
           id="use148"
           width="8"
           height="8"
           x="120"
           y="72" /><rect
           id="use149"
           width="8"
           height="8"
           x="120"
           y="160" /><rect
           id="use150"
           width="8"
           height="8"
           x="120"
           y="168" /><rect
           id="use151"
           width="8"
           height="8"
           x="120"
           y="184" /><rect
           id="use152"
           width="8"
           height="8"
           x="120"
           y="192" /><rect
           id="use153"
           width="8"
           height="8"
           x="120"
           y="208" /><rect
           id="use154"
           width="8"
           height="8"
           x="120"
           y="216" /><rect
           id="use155"
           width="8"
           height="8"
           x="120"
           y="224" /><rect
           id="use156"
           width="8"
           height="8"
           x="128"
           y="40" /><rect
           id="use157"
           width="8"
           height="8"
           x="128"
           y="64" /><rect
           id="use158"
           width="8"
           height="8"
           x="128"
           y="80" /><rect
           id="use159"
           width="8"
           height="8"
           x="128"
           y="88" /><rect
           id="use160"
           width="8"
           height="8"
           x="128"
           y="96" /><rect
           id="use161"
           width="8"
           height="8"
           x="128"
           y="112" /><rect
           id="use162"
           width="8"
           height="8"
           x="128"
           y="136" /><rect
           id="use163"
           width="8"
           height="8"
           x="128"
           y="152" /><rect
           id="use164"
           width="8"
           height="8"
           x="128"
           y="160" /><rect
           id="use165"
           width="8"
           height="8"
           x="128"
           y="176" /><rect
           id="use166"
           width="8"
           height="8"
           x="128"
           y="200" /><rect
           id="use167"
           width="8"
           height="8"
           x="128"
           y="216" /><rect
           id="use168"
           width="8"
           height="8"
           x="128"
           y="224" /><rect
           id="use169"
           width="8"
           height="8"
           x="136"
           y="32" /><rect
           id="use170"
           width="8"
           height="8"
           x="136"
           y="48" /><rect
           id="use171"
           width="8"
           height="8"
           x="136"
           y="56" /><rect
           id="use172"
           width="8"
           height="8"
           x="136"
           y="88" /><rect
           id="use173"
           width="8"
           height="8"
           x="136"
           y="104" /><rect
           id="use174"
           width="8"
           height="8"
           x="136"
           y="112" /><rect
           id="use175"
           width="8"
           height="8"
           x="136"
           y="128" /><rect
           id="use176"
           width="8"
           height="8"
           x="136"
           y="152" /><rect
           id="use177"
           width="8"
           height="8"
           x="136"
           y="176" /><rect
           id="use178"
           width="8"
           height="8"
           x="136"
           y="184" /><rect
           id="use179"
           width="8"
           height="8"
           x="136"
           y="192" /><rect
           id="use180"
           width="8"
           height="8"
           x="136"
           y="200" /><rect
           id="use181"
           width="8"
           height="8"
           x="136"
           y="208" /><rect
           id="use182"
           width="8"
           height="8"
           x="136"
           y="216" /><rect
           id="use183"
           width="8"
           height="8"
           x="136"
           y="224" /><rect
           id="use184"
           width="8"
           height="8"
           x="144"
           y="40" /><rect
           id="use185"
           width="8"
           height="8"
           x="144"
           y="72" /><rect
           id="use186"
           width="8"
           height="8"
           x="144"
           y="80" /><rect
           id="use187"
           width="8"
           height="8"
           x="144"
           y="96" /><rect
           id="use188"
           width="8"
           height="8"
           x="144"
           y="104" /><rect
           id="use189"
           width="8"
           height="8"
           x="144"
           y="128" /><rect
           id="use190"
           width="8"
           height="8"
           x="144"
           y="136" /><rect
           id="use191"
           width="8"
           height="8"
           x="144"
           y="144" /><rect
           id="use192"
           width="8"
           height="8"
           x="144"
           y="152" /><rect
           id="use193"
           width="8"
           height="8"
           x="144"
           y="176" /><rect
           id="use194"
           width="8"
           height="8"
           x="152"
           y="56" /><rect
           id="use195"
           width="8"
           height="8"
           x="152"
           y="88" /><rect
           id="use196"
           width="8"
           height="8"
           x="152"
           y="96" /><rect
           id="use197"
           width="8"
           height="8"
           x="152"
           y="104" /><rect
           id="use198"
           width="8"
           height="8"
           x="152"
           y="112" /><rect
           id="use199"
           width="8"
           height="8"
           x="152"
           y="120" /><rect
           id="use200"
           width="8"
           height="8"
           x="152"
           y="128" /><rect
           id="use201"
           width="8"
           height="8"
           x="152"
           y="136" /><rect
           id="use202"
           width="8"
           height="8"
           x="152"
           y="144" /><rect
           id="use203"
           width="8"
           height="8"
           x="152"
           y="160" /><rect
           id="use204"
           width="8"
           height="8"
           x="152"
           y="168" /><rect
           id="use205"
           width="8"
           height="8"
           x="152"
           y="184" /><rect
           id="use206"
           width="8"
           height="8"
           x="152"
           y="192" /><rect
           id="use207"
           width="8"
           height="8"
           x="152"
           y="208" /><rect
           id="use208"
           width="8"
           height="8"
           x="160"
           y="56" /><rect
           id="use209"
           width="8"
           height="8"
           x="160"
           y="80" /><rect
           id="use210"
           width="8"
           height="8"
           x="160"
           y="88" /><rect
           id="use211"
           width="8"
           height="8"
           x="160"
           y="96" /><rect
           id="use212"
           width="8"
           height="8"
           x="160"
           y="120" /><rect
           id="use213"
           width="8"
           height="8"
           x="160"
           y="136" /><rect
           id="use214"
           width="8"
           height="8"
           x="160"
           y="160" /><rect
           id="use215"
           width="8"
           height="8"
           x="160"
           y="168" /><rect
           id="use216"
           width="8"
           height="8"
           x="160"
           y="176" /><rect
           id="use217"
           width="8"
           height="8"
           x="160"
           y="184" /><rect
           id="use218"
           width="8"
           height="8"
           x="160"
           y="192" /><rect
           id="use219"
           width="8"
           height="8"
           x="160"
           y="224" /><rect
           id="use220"
           width="8"
           height="8"
           x="168"
           y="104" /><rect
           id="use221"
           width="8"
           height="8"
           x="168"
           y="112" /><rect
           id="use222"
           width="8"
           height="8"
           x="168"
           y="120" /><rect
           id="use223"
           width="8"
           height="8"
           x="168"
           y="144" /><rect
           id="use224"
           width="8"
           height="8"
           x="168"
           y="152" /><rect
           id="use225"
           width="8"
           height="8"
           x="168"
           y="160" /><rect
           id="use226"
           width="8"
           height="8"
           x="168"
           y="192" /><rect
           id="use227"
           width="8"
           height="8"
           x="168"
           y="200" /><rect
           id="use228"
           width="8"
           height="8"
           x="168"
           y="208" /><rect
           id="use229"
           width="8"
           height="8"
           x="168"
           y="216" /><rect
           id="use230"
           width="8"
           height="8"
           x="176"
           y="32" /><rect
           id="use231"
           width="8"
           height="8"
           x="176"
           y="40" /><rect
           id="use232"
           width="8"
           height="8"
           x="176"
           y="48" /><rect
           id="use233"
           width="8"
           height="8"
           x="176"
           y="56" /><rect
           id="use234"
           width="8"
           height="8"
           x="176"
           y="64" /><rect
           id="use235"
           width="8"
           height="8"
           x="176"
           y="72" /><rect
           id="use236"
           width="8"
           height="8"
           x="176"
           y="80" /><rect
           id="use237"
           width="8"
           height="8"
           x="176"
           y="96" /><rect
           id="use238"
           width="8"
           height="8"
           x="176"
           y="112" /><rect
           id="use239"
           width="8"
           height="8"
           x="176"
           y="128" /><rect
           id="use240"
           width="8"
           height="8"
           x="176"
           y="144" /><rect
           id="use241"
           width="8"
           height="8"
           x="176"
           y="152" /><rect
           id="use242"
           width="8"
           height="8"
           x="176"
           y="160" /><rect
           id="use243"
           width="8"
           height="8"
           x="176"
           y="176" /><rect
           id="use244"
           width="8"
           height="8"
           x="176"
           y="192" /><rect
           id="use245"
           width="8"
           height="8"
           x="176"
           y="200" /><rect
           id="use246"
           width="8"
           height="8"
           x="176"
           y="224" /><rect
           id="use247"
           width="8"
           height="8"
           x="184"
           y="32" /><rect
           id="use248"
           width="8"
           height="8"
           x="184"
           y="80" /><rect
           id="use249"
           width="8"
           height="8"
           x="184"
           y="104" /><rect
           id="use250"
           width="8"
           height="8"
           x="184"
           y="120" /><rect
           id="use251"
           width="8"
           height="8"
           x="184"
           y="128" /><rect
           id="use252"
           width="8"
           height="8"
           x="184"
           y="152" /><rect
           id="use253"
           width="8"
           height="8"
           x="184"
           y="160" /><rect
           id="use254"
           width="8"
           height="8"
           x="184"
           y="192" /><rect
           id="use255"
           width="8"
           height="8"
           x="184"
           y="216" /><rect
           id="use256"
           width="8"
           height="8"
           x="192"
           y="32" /><rect
           id="use257"
           width="8"
           height="8"
           x="192"
           y="48" /><rect
           id="use258"
           width="8"
           height="8"
           x="192"
           y="56" /><rect
           id="use259"
           width="8"
           height="8"
           x="192"
           y="64" /><rect
           id="use260"
           width="8"
           height="8"
           x="192"
           y="80" /><rect
           id="use261"
           width="8"
           height="8"
           x="192"
           y="104" /><rect
           id="use262"
           width="8"
           height="8"
           x="192"
           y="136" /><rect
           id="use263"
           width="8"
           height="8"
           x="192"
           y="144" /><rect
           id="use264"
           width="8"
           height="8"
           x="192"
           y="160" /><rect
           id="use265"
           width="8"
           height="8"
           x="192"
           y="168" /><rect
           id="use266"
           width="8"
           height="8"
           x="192"
           y="176" /><rect
           id="use267"
           width="8"
           height="8"
           x="192"
           y="184" /><rect
           id="use268"
           width="8"
           height="8"
           x="192"
           y="192" /><rect
           id="use269"
           width="8"
           height="8"
           x="192"
           y="208" /><rect
           id="use270"
           width="8"
           height="8"
           x="192"
           y="216" /><rect
           id="use271"
           width="8"
           height="8"
           x="200"
           y="32" /><rect
           id="use272"
           width="8"
           height="8"
           x="200"
           y="48" /><rect
           id="use273"
           width="8"
           height="8"
           x="200"
           y="56" /><rect
           id="use274"
           width="8"
           height="8"
           x="200"
           y="64" /><rect
           id="use275"
           width="8"
           height="8"
           x="200"
           y="80" /><rect
           id="use276"
           width="8"
           height="8"
           x="200"
           y="104" /><rect
           id="use277"
           width="8"
           height="8"
           x="200"
           y="112" /><rect
           id="use278"
           width="8"
           height="8"
           x="200"
           y="120" /><rect
           id="use279"
           width="8"
           height="8"
           x="200"
           y="144" /><rect
           id="use280"
           width="8"
           height="8"
           x="200"
           y="152" /><rect
           id="use281"
           width="8"
           height="8"
           x="200"
           y="208" /><rect
           id="use282"
           width="8"
           height="8"
           x="200"
           y="224" /><rect
           id="use283"
           width="8"
           height="8"
           x="208"
           y="32" /><rect
           id="use284"
           width="8"
           height="8"
           x="208"
           y="48" /><rect
           id="use285"
           width="8"
           height="8"
           x="208"
           y="56" /><rect
           id="use286"
           width="8"
           height="8"
           x="208"
           y="64" /><rect
           id="use287"
           width="8"
           height="8"
           x="208"
           y="80" /><rect
           id="use288"
           width="8"
           height="8"
           x="208"
           y="104" /><rect
           id="use289"
           width="8"
           height="8"
           x="208"
           y="120" /><rect
           id="use290"
           width="8"
           height="8"
           x="208"
           y="144" /><rect
           id="use291"
           width="8"
           height="8"
           x="208"
           y="152" /><rect
           id="use292"
           width="8"
           height="8"
           x="208"
           y="160" /><rect
           id="use293"
           width="8"
           height="8"
           x="208"
           y="168" /><rect
           id="use294"
           width="8"
           height="8"
           x="208"
           y="208" /><rect
           id="use295"
           width="8"
           height="8"
           x="208"
           y="216" /><rect
           id="use296"
           width="8"
           height="8"
           x="216"
           y="32" /><rect
           id="use297"
           width="8"
           height="8"
           x="216"
           y="80" /><rect
           id="use298"
           width="8"
           height="8"
           x="216"
           y="104" /><rect
           id="use299"
           width="8"
           height="8"
           x="216"
           y="120" /><rect
           id="use300"
           width="8"
           height="8"
           x="216"
           y="136" /><rect
           id="use301"
           width="8"
           height="8"
           x="216"
           y="144" /><rect
           id="use302"
           width="8"
           height="8"
           x="216"
           y="160" /><rect
           id="use303"
           width="8"
           height="8"
           x="216"
           y="168" /><rect
           id="use304"
           width="8"
           height="8"
           x="216"
           y="192" /><rect
           id="use305"
           width="8"
           height="8"
           x="216"
           y="200" /><rect
           id="use306"
           width="8"
           height="8"
           x="216"
           y="208" /><rect
           id="use307"
           width="8"
           height="8"
           x="216"
           y="216" /><rect
           id="use308"
           width="8"
           height="8"
           x="224"
           y="32" /><rect
           id="use309"
           width="8"
           height="8"
           x="224"
           y="40" /><rect
           id="use310"
           width="8"
           height="8"
           x="224"
           y="48" /><rect
           id="use311"
           width="8"
           height="8"
           x="224"
           y="56" /><rect
           id="use312"
           width="8"
           height="8"
           x="224"
           y="64" /><rect
           id="use313"
           width="8"
           height="8"
           x="224"
           y="72" /><rect
           id="use314"
           width="8"
           height="8"
           x="224"
           y="80" /><rect
           id="use315"
           width="8"
           height="8"
           x="224"
           y="96" /><rect
           id="use316"
           width="8"
           height="8"
           x="224"
           y="112" /><rect
           id="use317"
           width="8"
           height="8"
           x="224"
           y="120" /><rect
           id="use318"
           width="8"
           height="8"
           x="224"
           y="128" /><rect
           id="use319"
           width="8"
           height="8"
           x="224"
           y="144" /><rect
           id="use320"
           width="8"
           height="8"
           x="224"
           y="152" /><rect
           id="use321"
           width="8"
           height="8"
           x="224"
           y="176" /><rect
           id="use322"
           width="8"
           height="8"
           x="224"
           y="184" /><rect
           id="use323"
           width="8"
           height="8"
           x="224"
           y="192" /><rect
           id="use324"
           width="8"
           height="8"
           x="224"
           y="200" /><rect
           id="use325"
           width="8"
           height="8"
           x="224"
           y="208" /><rect
           id="use326"
           width="8"
           height="8"
           x="224"
           y="216" /><rect
           id="use327"
           width="8"
           height="8"
           x="224"
           y="224" /></g><g
         id="g328" /></g><text
       xml:space="preserve"
       style="font-size:15.5222px;font-family:Montserrat;-inkscape-font-specification:'Montserrat, @wght=700';font-variation-settings:'wght' 700;fill:#ffffff;fill-opacity:1;stroke-width:0"
       x="11.728723"
       y="21.672798"
       id="text1"><tspan
         sodipodi:role="line"
         id="tspan1"
         style="font-style:normal;font-variant:normal;font-weight:bold;font-stretch:normal;font-size:15.5222px;font-family:'Helvetica Neue';-inkscape-font-specification:'Helvetica Neue Bold';fill:#ffffff;fill-opacity:1;stroke-width:0"
         x="11.728723"
         y="21.672798">freiburg.run</tspan></text><text
       xml:space="preserve"
       style="font-size:5.64444px;font-family:Montserrat;-inkscape-font-specification:'Montserrat, @wght=700';font-variation-settings:'wght' 700;fill:#ffffff;fill-opacity:1;stroke-width:0"
       x="11.762589"
       y="32.871162"
       id="text2"><tspan
         sodipodi:role="line"
         id="tspan2"
         style="font-style:normal;font-variant:normal;font-weight:normal;font-stretch:normal;font-size:5.64444px;font-family:'Helvetica Neue';-inkscape-font-specification:'Helvetica Neue';fill:#ffffff;fill-opacity:1;stroke-width:0"
         x="11.762589"
         y="32.871162">Alle Laufveranstaltungen</tspan><tspan
         sodipodi:role="line"
         style="font-style:normal;font-variant:normal;font-weight:normal;font-stretch:normal;font-size:5.64444px;font-family:'Helvetica Neue';-inkscape-font-specification:'Helvetica Neue';fill:#ffffff;fill-opacity:1;stroke-width:0"
         x="11.762589"
         y="40.056953"
         id="tspan6">der Region auf einer</tspan><tspan
         sodipodi:role="line"
         style="font-style:normal;font-variant:normal;font-weight:normal;font-stretch:normal;font-size:5.64444px;font-family:'Helvetica Neue';-inkscape-font-specification:'Helvetica Neue';fill:#ffffff;fill-opacity:1;stroke-width:0"
         x="11.762589"
         y="47.242744"
         id="tspan14">Webseite!</tspan></text><text
       xml:space="preserve"
       style="font-style:normal;font-variant:normal;font-weight:bold;font-stretch:normal;font-size:2.82222px;font-family:'Helvetica Neue';-inkscape-font-specification:'Helvetica Neue Bold';text-align:end;text-anchor:end;fill:#ffffff;fill-opacity:1;stroke-width:0"
       x="100.63623"
       y="146.59656"
       id="text4"><tspan
         sodipodi:role="line"
         style="font-style:normal;font-variant:normal;font-weight:normal;font-stretch:normal;font-size:2.82222px;font-family:'Helvetica Neue';-inkscape-font-specification:'Helvetica Neue';text-align:end;text-anchor:end;fill:#000000;fill-opacity:1;stroke-width:0"
         x="100.63623"
         y="146.59656"
         id="tspan5">freiburg.run ist ein nichtkommerzielles Hobbyprojekt von Florian Pigorsch</tspan></text><text
       xml:space="preserve"
       transform="matrix(0.26458333,0,0,0.26458333,2.0001037,2)"
       id="text6"
       style="font-style:normal;font-variant:normal;font-weight:normal;font-stretch:normal;font-size:13.3333px;font-family:'Helvetica Neue';-inkscape-font-specification:'Helvetica Neue';text-align:end;white-space:pre;shape-inside:url(#rect6);display:inline;fill:#000000;fill-opacity:1;stroke-width:0" /><text
       xml:space="preserve"
       style="font-style:normal;font-variant:normal;font-weight:normal;font-stretch:normal;font-size:4.93889px;font-family:'Helvetica Neue';-inkscape-font-specification:'Helvetica Neue';text-align:end;text-anchor:end;fill:#000000;fill-opacity:1;stroke-width:0"
       x="11.728723"
       y="67.979546"
       id="text8"><tspan
         sodipodi:role="line"
         id="tspan8"
         style="font-size:4.93889px;text-align:start;text-anchor:start;stroke-width:0"
         x="11.728723"
         y="67.979546">Volksläufe</tspan><tspan
         sodipodi:role="line"
         style="font-size:4.93889px;text-align:start;text-anchor:start;stroke-width:0"
         x="11.728723"
         y="74.15316"
         id="tspan9">Marathons</tspan><tspan
         sodipodi:role="line"
         style="font-size:4.93889px;text-align:start;text-anchor:start;stroke-width:0"
         x="11.728723"
         y="80.326767"
         id="tspan13">Trailruns</tspan><tspan
         sodipodi:role="line"
         style="font-size:4.93889px;text-align:start;text-anchor:start;stroke-width:0"
         x="11.728723"
         y="86.500381"
         id="tspan10">Spendenläufe</tspan><tspan
         sodipodi:role="line"
         style="font-size:4.93889px;text-align:start;text-anchor:start;stroke-width:0"
         x="11.728723"
         y="92.673996"
         id="tspan11">sonstige Laufevents</tspan></text><text
       xml:space="preserve"
       style="font-style:normal;font-variant:normal;font-weight:normal;font-stretch:normal;font-size:4.9389px;font-family:'Helvetica Neue';-inkscape-font-specification:'Helvetica Neue';text-align:start;text-anchor:start;fill:#000000;fill-opacity:1;stroke-width:0"
       x="33.895073"
       y="140.15866"
       id="text12"><tspan
         sodipodi:role="line"
         id="tspan12"
         style="stroke-width:0"
         x="33.895073"
         y="140.15866">https://freiburg.run</tspan></text><rect
       style="fill:#ffffff;fill-opacity:1;stroke:none;stroke-width:0"
       id="rect12"
       width="9.3000002"
       height="0.80000001"
       x="11.685176"
       y="34.00565" /><path
       d="m 77.124116,51.181881 c 0,-2.018842 1.637928,-3.65677 3.656769,-3.65677 2.018842,0 3.65677,1.637928 3.65677,3.65677 0,2.018841 -1.637928,3.656766 -3.65677,3.656766 -2.018841,0 -3.656769,-1.637925 -3.656769,-3.656766 z m 14.802299,9.713295 c -0.754209,-0.754207 -1.782676,-1.180837 -2.856851,-1.180837 -0.144749,0 -0.289495,0.0081 -0.426623,0.02281 l 2.3769,7.138323 c 0.7085,2.133119 -0.129511,4.479541 -2.041697,5.675607 l -6.566948,4.106257 1.93504,6.765015 c 0.373295,1.295109 -0.380914,2.643541 -1.676019,3.016838 -1.295106,0.373296 -2.643541,-0.380911 -3.016835,-1.67602 l -2.186444,-7.648745 c -0.449477,-1.569362 0.198076,-3.245382 1.576982,-4.106246 l 4.327178,-2.70449 -2.354047,-6.277447 -0.388531,0.937042 c -1.14274,2.727344 -3.801516,4.502395 -6.757405,4.502395 h -1.622691 c -1.348434,0 -2.437844,-1.089408 -2.437844,-2.43784 0,-1.348432 1.08941,-2.437851 2.437844,-2.437851 h 1.622691 c 0.982758,0 1.874095,-0.594226 2.247389,-1.500799 l 0.479953,-1.142731 c 1.112265,-2.674022 3.359655,-4.715711 6.132706,-5.568961 l 3.710097,-1.142743 c 0.845628,-0.259013 1.729348,-0.39615 2.620685,-0.39615 2.361664,0 4.631908,0.937053 6.300308,2.613072 l 1.767435,1.759823 c 0.952293,0.952282 0.952293,2.498789 0,3.451071 -0.952281,0.952281 -2.498789,0.952281 -3.451072,0 l -1.75982,-1.759823 z m 2.628302,13.44625 h 4.510015 c 1.348428,0 2.437848,1.089408 2.437848,2.43784 0,1.348432 -1.08942,2.437852 -2.437848,2.437852 h -5.302315 c -1.447471,0 -2.757813,-0.85325 -3.34442,-2.171213 l -0.876102,-1.973127 0.723737,-0.457099 c 1.333198,-0.830396 2.323573,-2.041702 2.887324,-3.420602 z"
       id="path2"
       style="fill:#3e8ed0;fill-opacity:1;stroke:none;stroke-width:0.0761828;stroke-opacity:1" /></g></svg>
